{
    "asset" : {
        "generator" : "Khronos glTF Blender I/O v1.6.16",
        "version" : "2.0"
    },
    "scene" : 0,
    "scenes" : [
        {
            "name" : "Scene",
            "nodes" : [
                0
            ]
        }
    ],
    "nodes" : [
        {
            "mesh" : 0,
            "name" : "Cube"
        }
    ],
    "materials" : [
        {
            "doubleSided" : true,
            "name" : "Material.001",
            "pbrMetallicRoughness" : {
                "metallicFactor" : 0,
                "roughnessFactor" : 0.5
            }
        }
    ],
    "meshes" : [
        {
            "name" : "Cube.001",
            "primitives" : [
                {
                    "attributes" : {
                        "POSITION" : 0,
                        "NORMAL" : 1,
                        "TEXCOORD_0" : 2
                    },
                    "indices" : 3,
                    "material" : 0
                }
            ]
        }
    ],
    "accessors" : [
        {
            "bufferView" : 0,
            "componentType" : 5126,
            "count" : 12209,
            "max" : [
                2.08567476272583,
                4.702001094818115,
                10.75013542175293
            ],
            "min" : [
                -1.198530673980713,
                -4.652661323547363,
                -10.75013542175293
            ],
            "type" : "VEC3"
        },
        {
            "bufferView" : 1,
            "componentType" : 5126,
            "count" : 12209,
            "type" : "VEC3"
        },
        {
            "bufferView" : 2,
            "componentType" : 5126,
            "count" : 12209,
            "type" : "VEC2"
        },
        {
            "bufferView" : 3,
            "componentType" : 5123,
            "count" : 18384,
            "type" : "SCALAR"
        }
    ],
    "bufferViews" : [
        {
            "buffer" : 0,
            "byteLength" : 146508,
            "byteOffset" : 0
        },
        {
            "buffer" : 0,
            "byteLength" : 146508,
            "byteOffset" : 146508
        },
        {
            "buffer" : 0,
            "byteLength" : 97672,
            "byteOffset" : 293016
        },
        {
            "buffer" : 0,
            "byteLength" : 36768,
            "byteOffset" : 390688
        }
    ],
    "buffers" : [
        {
            "byteLength" : 427456,
            "uri" : "data:application/octet-stream;base64,"
        }
    ]
}
