{
    "asset" : {
        "generator" : "Khronos glTF Blender I/O v1.6.16",
        "version" : "2.0"
    },
    "scene" : 0,
    "scenes" : [
        {
            "name" : "Scene",
            "nodes" : [
                0
            ]
        }
    ],
    "nodes" : [
        {
            "mesh" : 0,
            "name" : "Cube"
        }
    ],
    "materials" : [
        {
            "doubleSided" : true,
            "name" : "Material",
            "pbrMetallicRoughness" : {
                "metallicFactor" : 0,
                "roughnessFactor" : 0.4000000059604645
            }
        }
    ],
    "meshes" : [
        {
            "name" : "Cube",
            "primitives" : [
                {
                    "attributes" : {
                        "POSITION" : 0,
                        "NORMAL" : 1,
                        "TEXCOORD_0" : 2
                    },
                    "indices" : 3,
                    "material" : 0
                }
            ]
        }
    ],
    "accessors" : [
        {
            "bufferView" : 0,
            "componentType" : 5126,
            "count" : 4037,
            "max" : [
                1.0100959539413452,
                3.521575689315796,
                1.5319334268569946
            ],
            "min" : [
                -1.6697940826416016,
                -2.2280852794647217,
                -1.5319335460662842
            ],
            "type" : "VEC3"
        },
        {
            "bufferView" : 1,
            "componentType" : 5126,
            "count" : 4037,
            "type" : "VEC3"
        },
        {
            "bufferView" : 2,
            "componentType" : 5126,
            "count" : 4037,
            "type" : "VEC2"
        },
        {
            "bufferView" : 3,
            "componentType" : 5123,
            "count" : 6144,
            "type" : "SCALAR"
        }
    ],
    "bufferViews" : [
        {
            "buffer" : 0,
            "byteLength" : 48444,
            "byteOffset" : 0
        },
        {
            "buffer" : 0,
            "byteLength" : 48444,
            "byteOffset" : 48444
        },
        {
            "buffer" : 0,
            "byteLength" : 32296,
            "byteOffset" : 96888
        },
        {
            "buffer" : 0,
            "byteLength" : 12288,
            "byteOffset" : 129184
        }
    ],
    "buffers" : [
        {
            "byteLength" : 141472,
            "uri" : "data:application/octet-stream;base64,"
        }
    ]
}
